<?xml version="1.0" encoding="UTF-8" standalone="no"?>
<svg width="732px" height="96px" viewBox="0 0 732 96" version="1.1" xmlns="http://www.w3.org/2000/svg" xmlns:xlink="http://www.w3.org/1999/xlink">
    <!-- Generator: Sketch 50 (54983) - http://www.bohemiancoding.com/sketch -->
    <title>demo logo</title>
    <desc>Created with Sketch.</desc>
    <defs>
        <linearGradient x1="513.586435%" y1="0%" x2="1.11022302e-14%" y2="0%" id="linearGradient-1">
            <stop stop-color="#92FE9D" offset="0%"></stop>
            <stop stop-color="#00C9FF" offset="100%"></stop>
        </linearGradient>
        <linearGradient x1="394.815426%" y1="-1.11022302e-14%" x2="-115.459179%" y2="-1.11022302e-14%" id="linearGradient-2">
            <stop stop-color="#92FE9D" offset="0%"></stop>
            <stop stop-color="#00C9FF" offset="100%"></stop>
        </linearGradient>
        <linearGradient x1="187.974818%" y1="-1.11022302e-14%" x2="-162.87541%" y2="-1.11022302e-14%" id="linearGradient-3">
            <stop stop-color="#92FE9D" offset="0%"></stop>
            <stop stop-color="#00C9FF" offset="100%"></stop>
        </linearGradient>
        <linearGradient x1="105.978772%" y1="-1.11022302e-14%" x2="-422.037567%" y2="-1.11022302e-14%" id="linearGradient-4">
            <stop stop-color="#92FE9D" offset="0%"></stop>
            <stop stop-color="#00C9FF" offset="100%"></stop>
        </linearGradient>
    </defs>
    <g id="demo-logo" stroke="none" stroke-width="1" fill="none" fill-rule="evenodd">
        <g id="Asset-1" fill-rule="nonzero">
            <path d="M135.5,35.7 C132.409138,32.5366136 128.743761,29.9912128 124.7,28.2 C120.219798,26.2669759 115.378639,25.3123812 110.5,25.4 C105.556729,25.312867 100.650441,26.2668676 96.1,28.2 C91.9508359,29.9519792 88.2065343,32.5389512 85.1,35.8 C82.0424184,39.0476914 79.6326556,42.8490073 78,47 C76.3168639,51.2655356 75.4681749,55.8145089 75.5,60.4 C75.4601509,64.9537565 76.3093554,69.4715243 78,73.7 C79.5974684,77.8095716 82.0129585,81.5518801 85.1,84.7 C88.1928397,87.952337 91.9426123,90.5090002 96.1,92.2 C100.59763,94.0762805 105.426778,95.028507 110.3,95 C116.85469,95.1375322 123.321896,93.4775007 129,90.2 C134.022261,87.3539116 138.039682,83.0220838 140.5,77.8 L128.4,74.3 C127.691709,75.8376217 126.746924,77.2548001 125.6,78.5 C124.396935,79.7890728 123.016406,80.90023 121.5,81.8 C119.908081,82.7380951 118.190909,83.445166 116.4,83.9 C114.573332,84.3842388 112.68966,84.6196979 110.8,84.6 C108.268456,84.5899837 105.760244,84.1154572 103.4,83.2 C101.065999,82.2769533 98.9282282,80.9196381 97.1,79.2 C95.2709661,77.3933899 93.7507704,75.2988981 92.6,73 C91.3652498,70.4676458 90.6511565,67.7132859 90.5,64.9 L144.2,64.9 C144.3,64.3 144.4,63.6 144.5,62.7 C144.585004,61.735807 144.618385,60.7677581 144.6,59.8 C144.616288,55.3550429 143.802335,50.9461344 142.2,46.8 C140.87205,42.6239598 138.576378,38.8206828 135.5,35.7 Z M90.2,55 C90.424385,52.29472 91.1358172,49.6522575 92.3,47.2 C93.3562525,44.9000126 94.8508004,42.8280256 96.7,41.1 C98.4961762,39.4127924 100.601425,38.0885228 102.9,37.2 C105.289844,36.2662911 107.834247,35.7913358 110.4,35.8 C112.996532,35.8099104 115.570372,36.2840387 118,37.2 C120.340783,38.0633486 122.483473,39.389776 124.3,41.1 C126.1492,42.8280256 127.643747,44.9000126 128.7,47.2 C129.909639,49.6352741 130.623453,52.2865857 130.8,55 L90.2,55 Z" id="Shape" fill="#000000"></path>
            <path d="M213.6,33.5 C212.121484,31.0047776 210.019318,28.9370732 207.5,27.5 C204.449993,25.9112778 201.035818,25.1525723 197.6,25.3 C191.960105,25.2361683 186.392924,26.5764155 181.4,29.2 C176.719872,31.6216996 172.832769,35.3352708 170.2,39.9 L170.2,26.5 L157.4,26.5 L157.4,93.5 L171.5,93.5 L171.5,53.7 C172.276012,51.4456043 173.3886,49.3215734 174.8,47.4 C176.163435,45.5213485 177.77854,43.8389479 179.6,42.4 C181.356706,41.0150695 183.311965,39.9025946 185.4,39.1 C187.374045,38.3178716 189.476686,37.9109088 191.6,37.9 C195.5,37.9 198.5,39.3 200.5,42.2 C202.5,45.1 203.5,49.7 203.5,56 L203.5,93.6 L217.6,93.6 L217.6,52.7 C217.620209,49.213043 217.318934,45.7316466 216.7,42.3 C216.263888,39.1892795 215.209873,36.1972368 213.6,33.5 Z" id="Shape" fill="#000000"></path>
            <path d="M299.1,76.9 L299.1,0 L285,0 L285,39.2 C282.66262,35.160905 279.365281,31.7605238 275.4,29.3 C271.144653,26.6513076 266.211268,25.2963637 261.2,25.4 C257.030279,25.3292549 252.907818,26.2911624 249.2,28.2 C245.55347,30.0235712 242.320075,32.5762517 239.7,35.7 C236.949809,38.9539293 234.815001,42.6813709 233.4,46.7 C231.893612,50.970329 231.148966,55.4720523 231.2,60 C231.16608,64.6741313 231.97921,69.315745 233.6,73.7 C235.119269,77.7645497 237.354596,81.5239631 240.2,84.8 C242.981764,87.9614487 246.386115,90.5147124 250.2,92.3 C254.137556,94.1644448 258.44339,95.1212968 262.8,95.1 C267.767371,95.1680589 272.665027,93.9263998 277,91.5 C281.196243,89.1690533 284.685603,85.7487891 287.1,81.6 L287.4,86.6 C287.549771,88.787632 288.599798,90.8152699 290.3,92.2 C292.261711,93.7371376 294.710584,94.5179379 297.2,94.4 C297.934667,94.4102655 298.669294,94.3768733 299.4,94.3 C300.3,94.2 301.5,94 302.9,93.8 L302.9,81.8 C301.771959,81.8620361 300.674074,81.4228821 299.9,80.6 C299.276103,79.4718652 298.997886,78.1851103 299.1,76.9 Z M285,69.5 C284.462303,71.4098694 283.58126,73.2058408 282.4,74.8 C281.161447,76.4209912 279.676815,77.8381406 278,79 C276.272416,80.1888555 274.387635,81.1312459 272.4,81.8 C270.402445,82.4722466 268.307615,82.8101223 266.2,82.8 C263.463818,82.8106484 260.761493,82.1949289 258.3,81 C255.845533,79.7882349 253.640612,78.1260634 251.8,76.1 C249.864828,74.0197373 248.368414,71.5710591 247.4,68.9 C246.304067,66.1321902 245.760514,63.1766223 245.8,60.2 C245.80341,57.3011293 246.310973,54.4249383 247.3,51.7 C248.228764,49.0659072 249.579731,46.6003917 251.3,44.4 C252.971513,42.3088786 255.045832,40.5746126 257.4,39.3 C259.788705,37.994417 262.478463,37.3392197 265.2,37.4 C267.275555,37.3820834 269.338805,37.7203211 271.3,38.4 C273.314086,39.1238306 275.229119,40.0981458 277,41.3 C278.812364,42.5951552 280.42893,44.1443641 281.8,45.9 C283.18632,47.6922531 284.298478,49.6806564 285.1,51.8 L285.1,69.5 L285,69.5 Z" id="Shape" fill="#000000"></path>
            <path d="M373.8,35.7 C370.709138,32.5366136 367.043761,29.9912128 363,28.2 C358.519798,26.2669759 353.678639,25.3123812 348.8,25.4 C343.856729,25.312867 338.950441,26.2668676 334.4,28.2 C330.250836,29.9519792 326.506534,32.5389512 323.4,35.8 C320.342418,39.0476914 317.932656,42.8490073 316.3,47 C314.616864,51.2655356 313.768175,55.8145089 313.8,60.4 C313.760151,64.9537565 314.609355,69.4715243 316.3,73.7 C317.897468,77.8095716 320.312958,81.5518801 323.4,84.7 C326.49284,87.952337 330.242612,90.5090002 334.4,92.2 C338.89763,94.0762805 343.726778,95.028507 348.6,95 C355.15469,95.1375322 361.621896,93.4775007 367.3,90.2 C372.322261,87.3539116 376.339682,83.0220838 378.8,77.8 L366.7,74.3 C365.991709,75.8376217 365.046924,77.2548001 363.9,78.5 C362.696935,79.7890728 361.316406,80.90023 359.8,81.8 C358.208081,82.7380951 356.490909,83.445166 354.7,83.9 C352.873332,84.3842388 350.98966,84.6196979 349.1,84.6 C346.568456,84.5899837 344.060244,84.1154572 341.7,83.2 C339.365999,82.2769533 337.228228,80.9196381 335.4,79.2 C333.570966,77.3933899 332.05077,75.2988981 330.9,73 C329.66525,70.4676458 328.951156,67.7132859 328.8,64.9 L382.5,64.9 C382.6,64.3 382.7,63.6 382.8,62.7 C382.885004,61.735807 382.918385,60.7677581 382.9,59.8 C382.916288,55.3550429 382.102335,50.9461344 380.5,46.8 C379.17205,42.6239598 376.876378,38.8206828 373.8,35.7 Z M328.5,55 C328.724385,52.29472 329.435817,49.6522575 330.6,47.2 C331.656253,44.9000126 333.1508,42.8280256 335,41.1 C336.796176,39.4127924 338.901425,38.0885228 341.2,37.2 C343.589844,36.2662911 346.134247,35.7913358 348.7,35.8 C351.296532,35.8099104 353.870372,36.2840387 356.3,37.2 C358.640783,38.0633486 360.783473,39.389776 362.6,41.1 C364.4492,42.8280256 365.943747,44.9000126 367,47.2 C368.209639,49.6352741 368.923453,52.2865857 369.1,55 L328.5,55 Z" id="Shape" fill="#000000"></path>
            <path d="M429.9,25.9 C425.532247,26.2089886 421.355117,27.8102218 417.9,30.5 C414.076498,33.4486124 410.994622,37.249593 408.9,41.6 L408.9,26.6 L395.8,26.6 L395.8,93.6 L409.9,93.6 L409.9,52.6 C411.644325,48.2954589 414.824172,44.726964 418.9,42.5 C423.370802,40.1197545 428.336442,38.8184143 433.4,38.7 L433.4,26 C432.905419,25.9098184 432.402175,25.8762688 431.9,25.9 L429.9,25.9 Z" id="Shape" fill="#000000"></path>
            <polygon id="Shape" fill="#000000" points="519.9 2.6 504 2.6 461.2 49.5 461.2 2.7 446.9 2.7 446.9 93.6 461.2 93.6 461.2 66.1 475.2 51.6 506 93.6 522 93.6 484 42.8"></polygon>
            <rect id="Rectangle-path" fill="#000000" x="531" y="0" width="14.1" height="15.5"></rect>
            <rect id="Rectangle-path" fill="#000000" x="531" y="26.5" width="14.1" height="67"></rect>
            <path d="M597.6,79 C596.7,79.4 595.4,80 593.6,80.7 C591.811629,81.3781952 589.912569,81.717313 588,81.7 C586.22569,81.7858518 584.481739,81.2163984 583.1,80.1 C581.652093,78.7643289 580.850333,76.8692603 580.9,74.9 L580.9,37.4 L595.5,37.4 L595.5,26.5 L580.9,26.5 L580.9,4.5 L566.8,4.5 L566.8,26.5 L558,26.5 L558,37.4 L566.8,37.4 L566.8,79.3 C566.719081,81.7001105 567.162729,84.0889819 568.1,86.3 C568.890353,88.1146004 570.087965,89.7228222 571.6,91 C573.140986,92.2300138 574.907391,93.1471858 576.8,93.7 C578.844701,94.3064148 580.967291,94.6096421 583.1,94.6 C586.53324,94.6460495 589.949093,94.1049244 593.2,93 C595.724505,92.1879682 598.19596,91.219425 600.6,90.1 L597.6,79 Z" id="Shape" fill="#000000"></path>
            <polygon id="Shape" fill="#000000" points="38.7 2.6 24.3 2.6 14.8 45.5 29 45.5"></polygon>
            <polygon id="Shape" fill="#000000" points="24.7 64.7 50.9 64.7 50.9 55 0 55 10.4 64.7 10.5 64.7 4 93.6 71.5 93.6 71.5 80.9 21 80.9"></polygon>
            <path d="M626.859802,29.3009337 C625.356424,29.3134423 623.870213,29.0089033 622.517179,28.411088 C621.205783,27.8317108 620.031578,27.0235716 619.060935,26.03235 C618.084804,25.0327522 617.319501,23.8773154 616.803535,22.6241826 C616.268842,21.3526982 615.996439,20.0020258 616.000054,18.6402327 C615.995633,17.2515558 616.261193,15.8731616 616.784405,14.5690431 C617.276011,13.3218549 618.012902,12.166901 618.958905,11.1608757 C619.873705,10.1969511 620.987395,9.40649224 622.236598,8.8344816 C623.524694,8.24692944 624.947793,7.94786602 626.387917,7.96208382 C627.332001,7.95633295 628.27089,8.08988641 629.168216,8.35757081 C630.022097,8.61682583 630.838011,8.97034764 631.59779,9.41026414 C632.343446,9.84055764 633.028711,10.3522728 633.638377,10.9340523 C634.233009,11.4998226 634.756989,12.1240119 635.200701,12.7951676 L635.200701,0 L637.375202,0 L637.375202,26.1719337 C637.375202,26.8310786 637.679164,27.1606511 638.287089,27.1606511 L638.287089,28.9461586 L637.853464,29.0043185 C637.738787,29.0106762 637.623792,29.0106762 637.509115,29.0043185 C636.939974,29.0097763 636.397723,28.7838139 636.02969,28.387824 C635.64431,28.0497904 635.416026,27.5896554 635.392006,27.1024913 L635.392006,24.7760972 C634.477176,26.1383765 633.200792,27.2684978 631.680689,28.0621289 C630.222891,28.8582628 628.558881,29.2858569 626.859802,29.3009337 Z M627.248789,27.5154262 C628.120265,27.5053887 628.983255,27.3578094 629.799523,27.0792274 C631.569562,26.500194 633.119268,25.4684064 634.263307,24.1072589 C634.794787,23.4891669 635.126111,22.7478095 635.219832,21.9669763 L635.219832,15.1971695 C634.881343,14.4233776 634.414652,13.7015478 633.836059,13.0568869 C633.253561,12.3931543 632.573311,11.8060046 631.814602,11.3120913 C631.065099,10.827491 630.248026,10.4363044 629.385029,10.1488943 C628.57009,9.86598474 627.706251,9.71826029 626.834295,9.71269538 C625.594346,9.69870943 624.369826,9.96442926 623.269645,10.4862214 C622.224288,10.9926451 621.300637,11.6847699 620.553114,12.5218163 C619.791531,13.3687644 619.203933,14.3342052 618.818615,15.371649 C618.403829,16.4342662 618.188252,17.5530148 618.180931,18.6809446 C618.173483,19.8337154 618.409471,20.9770116 618.876006,22.0484001 C619.319712,23.0854575 619.968113,24.0395398 620.789057,24.863337 C621.600365,25.6724736 622.574542,26.3319355 623.658632,26.805876 C624.781078,27.2937552 626.011916,27.5385741 627.255166,27.5212422 L627.248789,27.5154262 Z" id="Shape" fill="url(#linearGradient-1)"></path>
            <path d="M654.580068,29.4686441 C653.052743,29.4819779 651.540506,29.1922393 650.148169,28.6195102 C648.809209,28.0685575 647.605579,27.2773723 646.609026,26.2931161 C644.540644,24.2287334 643.402064,21.5287868 643.420609,18.7323353 C643.406962,15.9644475 644.546634,13.2951736 646.609026,11.2646102 C647.594617,10.2987936 648.782982,9.52348711 650.103531,8.98474398 C652.907628,7.86159115 656.099464,7.86159115 658.903562,8.98474398 C660.23446,9.53960678 661.431023,10.3304216 662.423574,11.3111381 C663.417806,12.2905384 664.198999,13.4332795 664.725611,14.6785935 C665.278562,15.9762771 665.557663,17.3575742 665.548223,18.7497832 L665.548223,19.244142 C665.558067,19.3715726 665.542952,19.499584 665.503585,19.622181 L645.684385,19.622181 C645.75856,20.7676124 646.067881,21.8901582 646.596272,22.9314766 C647.085217,23.9063078 647.753848,24.7974384 648.573091,25.5661179 C649.36313,26.3029166 650.300347,26.8951481 651.33426,27.3109135 C652.38844,27.7359343 653.529537,27.952011 654.682098,27.9448559 C655.46091,27.9450996 656.235875,27.8452461 656.984135,27.6482407 C657.719273,27.4558667 658.425942,27.1824353 659.08849,26.8340027 C659.732229,26.496435 660.318668,26.0752073 660.829365,25.5835659 C661.322068,25.1127763 661.725101,24.5702426 662.021833,23.978354 L663.934884,24.4552648 C663.607251,25.2092125 663.129443,25.9013403 662.525603,26.4966756 C661.886513,27.1054539 661.154068,27.6265527 660.351103,28.0437277 C659.501137,28.5035815 658.587517,28.8576217 657.634572,29.096421 C656.639899,29.347493 655.612122,29.4727384 654.580068,29.4686441 Z M663.443867,17.9762572 C663.373352,16.8266749 663.070692,15.6988514 662.551111,14.6495136 C662.071925,13.6877861 661.409043,12.8114393 660.593423,12.0614002 C659.800695,11.3378745 658.86344,10.7594378 657.832253,10.3573165 C655.692779,9.53884622 653.282429,9.53884622 651.142955,10.3573165 C650.113737,10.7595788 649.1786,11.3380437 648.388162,12.0614002 C647.572283,12.8137791 646.922789,13.7023355 646.475112,14.6785935 C645.988001,15.7296407 645.701176,16.8488117 645.626993,17.9878892 L663.443867,17.9762572 Z" id="Shape" fill="url(#linearGradient-2)"></path>
            <path d="M703.388132,29.1085942 L701.213632,29.1085942 L701.213632,17.6162073 C701.213632,15.0028913 700.771504,13.0739228 699.88725,11.829302 C699.000334,10.5861871 697.448145,9.87501722 695.825207,9.96818669 C694.915023,9.96511068 694.013264,10.127228 693.172444,10.4450975 C692.328032,10.7645525 691.549529,11.2129943 690.870407,11.7711421 C690.159393,12.3558609 689.550786,13.0364706 689.065763,13.789289 C688.541539,14.6035615 688.13839,15.4778085 687.866918,16.3890344 L687.866918,29.1085942 L685.692418,29.1085942 L685.692418,17.6162073 C685.692418,14.97575 685.267296,13.0370882 684.417051,11.800222 C683.535395,10.562782 681.988547,9.85738137 680.374138,9.95655472 C679.474478,9.95155819 678.58228,10.1056135 677.746883,10.4102016 C676.907963,10.7214594 676.135316,11.1643526 675.463976,11.7187983 C674.746698,12.3089732 674.124154,12.9883643 673.614694,13.7369451 C673.066313,14.542166 672.649562,15.4159969 672.377589,16.3308746 L672.377589,29.1085942 L670.203088,29.1085942 L670.203088,8.50255841 L672.243675,8.50255841 L672.243675,13.417066 C673.071078,11.8563699 674.327768,10.5178442 675.891224,9.5319878 C677.362786,8.61874119 679.104411,8.1359182 680.884285,8.14778331 C682.597471,8.0808818 684.269639,8.63736528 685.532997,9.69483539 C686.745143,10.7698096 687.499856,12.2021228 687.662859,13.7369451 C689.788471,10.0108373 692.743071,8.14778331 696.526659,8.14778331 C698.988117,8.14778331 700.748123,8.94651195 701.806677,10.5439692 C702.865232,12.1414265 703.394509,14.3805808 703.394509,17.2614322 L703.388132,29.1085942 Z" id="Shape" fill="url(#linearGradient-3)"></path>
            <path d="M720.127414,29.4990562 C718.608186,29.5134968 717.103998,29.2236323 715.721022,28.6499224 C714.397603,28.0949757 713.209412,27.3039628 712.226517,26.3235283 C711.230471,25.3299823 710.449404,24.1736116 709.92448,22.9153609 C709.374892,21.6168089 709.09591,20.2360981 709.101869,18.8441712 C709.093571,16.0598514 710.231414,13.3741053 712.290286,11.3182863 C713.273526,10.338204 714.461633,9.5472465 715.78479,8.9918922 C717.155004,8.42028877 718.646241,8.13040276 720.152922,8.14275835 C721.649813,8.13230112 723.130673,8.42427273 724.489169,8.99770819 C725.807831,9.56002128 726.994536,10.3500459 727.983674,11.3241023 C728.992993,12.3161136 729.78902,13.472215 730.330349,14.7322696 C730.899176,16.0447732 731.18707,17.4445074 731.178468,18.8558032 C731.177198,21.6280868 730.040003,24.2998576 727.990051,26.3467922 C727.006925,27.3269918 725.81879,28.1179677 724.495546,28.6731863 C723.123276,29.2366044 721.632168,29.5185239 720.127414,29.4990562 Z M711.263615,18.919779 C711.255254,20.0915019 711.491131,21.2539988 711.95869,22.3453943 C712.401645,23.3758234 713.050298,24.3223879 713.87174,25.1370673 C714.66091,25.9259989 715.611983,26.5661947 716.67117,27.0214465 C718.846303,27.9447694 721.357511,27.9447694 723.532644,27.0214465 C724.604705,26.5591543 725.565041,25.9066972 726.357581,25.1021714 C727.17741,24.2710463 727.825539,23.3114524 728.270631,22.2697865 C728.7441,21.1576351 728.980028,19.9731684 728.965706,18.7801954 C728.973912,17.608485 728.738041,16.4460145 728.270631,15.3545801 C727.828755,14.3166896 727.180157,13.3623167 726.357581,12.5396432 C725.563594,11.7465011 724.614173,11.0955831 723.558151,10.6203681 C722.497381,10.143281 721.329257,9.89834157 720.146545,9.90500189 C718.957916,9.90007871 717.784007,10.1448584 716.715808,10.6203681 C715.650651,11.0921491 714.699039,11.7524773 713.916378,12.5629071 C713.09961,13.411355 712.452139,14.3837537 712.003328,15.4360039 C711.51403,16.5432374 711.262893,17.7259962 711.263615,18.919779 Z" id="Shape" fill="url(#linearGradient-4)"></path>
        </g>
    </g>
</svg>